<?xml version="1.0" encoding="utf-8"?>
<!-- Generator: Adobe Illustrator 19.2.1, SVG Export Plug-In . SVG Version: 6.00 Build 0)  -->
<svg version="1.1" id="Layer_1" xmlns="http://www.w3.org/2000/svg" xmlns:xlink="http://www.w3.org/1999/xlink" x="0px" y="0px"
	 viewBox="0 0 512 512" style="enable-background:new 0 0 512 512;" xml:space="preserve">
<style type="text/css">
	.st0{fill:#283C82;}
</style>
<g>
	<path class="st0" d="M461.3,92.5H50.8c-19.5,0-35.9,14.2-35.9,33.1v276.3c0,18,15.4,33.1,35.9,33.1h410.3c19.5,0,35.9-15.1,35.9-34
		V125.6C497.2,107.6,481.8,92.5,461.3,92.5z M460,380c0,8.6-10.8,15-20,15H75c-9.3,0-21-6.5-21-15c0,0,0-161.1,0-230
		c0-8.6,11.8-15,21-15h365c9.3,0,19,6.5,19,15L460,380z"/>
</g>
<path class="st0" d="M217.2,356.7H103.7c-8.3,0-15-6.7-15-15V199.8c0-8.3,6.7-15,15-15h113.4c8.3,0,15,6.7,15,15v141.9
	C232.2,350,225.5,356.7,217.2,356.7z"/>
<rect x="263.5" y="199.1" class="st0" width="160" height="35"/>
<path class="st0" d="M367,148.3H145V86c0-8.3,6.7-15,15-15H352c8.3,0,15,6.7,15,15V148.3z"/>
<ellipse class="st0" cx="256" cy="71" rx="44.2" ry="22.1"/>
<rect x="263.5" y="260.3" class="st0" width="128.9" height="35"/>
</svg>
